<?xml version="1.0" standalone="no"?>
<!DOCTYPE svg PUBLIC "-//W3C//DTD SVG 20010904//EN"
 "http://www.w3.org/TR/2001/REC-SVG-20010904/DTD/svg10.dtd">
<svg version="1.0" xmlns="http://www.w3.org/2000/svg"
 width="1280.000000pt" height="1280.000000pt" viewBox="0 0 1280.000000 1280.000000"
 preserveAspectRatio="xMidYMid meet">

<g transform="translate(0.000000,1280.000000) scale(0.100000,-0.100000)"
fill="#000000" stroke="none">
<path d="M0 12419 c0 -291 3 -383 13 -392 6 -7 64 -59 127 -117 63 -57 164
-152 223 -210 60 -58 116 -109 125 -114 9 -5 20 -14 24 -20 6 -8 8 -8 8 0 0
10 -47 73 -131 174 -16 19 -29 41 -29 48 0 6 -4 12 -9 12 -5 0 -11 8 -14 18
-2 9 -8 26 -12 37 -4 11 -3 16 2 10 4 -6 21 -17 38 -25 16 -8 91 -76 167 -151
76 -76 138 -135 138 -132 0 2 40 -37 88 -86 49 -50 96 -91 105 -91 11 0 15 -6
11 -17 -5 -15 -4 -15 4 -3 6 8 8 19 4 25 -4 5 -7 12 -7 15 -1 3 -8 28 -17 55
-9 28 -19 100 -22 160 -4 61 -14 148 -22 195 -17 94 -81 302 -96 311 -5 3 -6
12 -3 20 3 8 0 28 -5 44 -10 29 -10 29 -6 -7 3 -21 1 -38 -5 -38 -5 0 -9 7 -9
15 0 8 -4 15 -9 15 -4 0 -29 42 -54 93 -25 51 -70 133 -100 182 -29 50 -69
119 -87 155 -19 36 -37 67 -40 70 -7 7 -26 38 -49 81 -11 20 -27 39 -36 43 -9
3 -84 6 -166 6 l-149 0 0 -381z"/>
<path d="M380 12763 c11 -21 36 -65 56 -98 19 -33 71 -131 115 -218 45 -87 83
-156 86 -153 4 3 0 53 -7 111 -9 74 -10 108 -2 117 7 9 7 29 1 63 -5 27 -7 56
-4 64 3 8 -2 22 -10 31 -10 11 -13 20 -6 24 6 4 7 14 4 23 -4 11 -2 14 5 9 7
-4 7 5 -2 26 l-14 33 -121 3 -122 3 21 -38z"/>
<path d="M688 12778 c3 -13 12 -28 19 -33 7 -6 14 -26 16 -45 1 -19 6 -38 11
-42 5 -3 10 -39 12 -80 3 -109 48 -204 148 -312 25 -28 44 -52 41 -54 -6 -6
-79 42 -116 76 -24 21 -28 22 -42 8 -19 -20 -15 -55 28 -216 47 -174 55 -225
60 -385 8 -226 13 -265 34 -301 11 -19 18 -40 15 -48 -7 -18 39 -61 98 -92 26
-13 49 -28 53 -34 4 -6 11 -8 16 -5 5 4 9 2 9 -3 0 -5 23 -19 50 -31 28 -12
50 -25 50 -30 0 -8 43 -29 71 -35 24 -5 51 -19 118 -59 134 -82 317 -150 332
-125 4 6 18 8 32 4 l24 -6 -19 40 c-11 21 -26 44 -34 51 -8 6 -14 18 -14 26 0
7 -7 25 -16 39 -21 31 -11 43 16 19 22 -20 26 -14 10 16 -17 31 -6 22 41 -33
24 -29 37 -48 29 -44 -28 16 111 -121 193 -190 70 -58 157 -148 248 -254 l21
-25 -18 30 c-44 74 -171 213 -243 266 -32 23 -65 55 -74 70 -22 40 -11 36 30
-8 19 -21 38 -38 43 -38 35 0 212 -199 266 -299 15 -28 68 -107 118 -176 109
-149 146 -205 146 -221 0 -13 38 -77 57 -97 7 -7 13 -22 13 -31 0 -10 6 -24
14 -31 8 -6 12 -18 9 -26 -3 -8 5 -17 21 -24 14 -5 26 -15 26 -21 0 -8 -5 -7
-16 2 -9 7 7 -23 35 -66 51 -80 61 -102 39 -89 -13 8 -12 7 43 -79 21 -32 43
-75 50 -95 7 -20 18 -42 25 -50 8 -7 17 -19 21 -25 25 -41 105 -73 275 -112
73 -16 126 -34 140 -46 13 -12 18 -18 12 -15 -12 6 -122 30 -184 40 -19 3 -74
14 -122 25 -51 10 -88 14 -88 8 0 -5 -15 2 -34 17 -37 28 -46 31 -46 17 0 -5
9 -11 20 -14 11 -3 20 -12 20 -21 0 -15 -3 -15 -26 1 l-27 17 16 -30 c13 -25
95 -135 279 -373 26 -33 54 -75 62 -93 9 -18 26 -51 40 -73 13 -22 36 -62 51
-90 14 -27 46 -81 70 -120 38 -60 245 -467 245 -481 0 -3 12 -31 26 -62 15
-31 37 -88 49 -127 38 -116 91 -246 131 -325 31 -60 63 -99 164 -200 69 -69
148 -141 174 -160 27 -19 74 -58 105 -86 31 -29 103 -90 161 -137 58 -47 113
-93 124 -103 10 -9 49 -37 85 -62 36 -25 72 -54 79 -64 8 -11 19 -17 25 -15 7
2 29 -4 50 -15 l39 -19 36 24 c21 14 111 87 202 162 351 293 1187 927 1280
972 46 23 69 27 140 28 79 0 90 -3 160 -38 76 -38 1049 -724 1184 -834 16 -13
35 -22 42 -19 9 3 14 -1 14 -12 0 -18 190 -166 297 -232 52 -32 53 -33 80 -15
51 34 378 300 423 345 3 3 37 32 75 65 204 173 406 381 388 399 -3 3 2 14 11
25 16 17 97 168 94 174 -2 2 20 38 58 97 12 19 34 60 48 90 34 75 104 201 123
223 9 9 13 17 10 17 -4 0 7 26 25 58 17 31 50 92 73 135 23 42 45 74 50 70 4
-5 5 -3 1 4 -7 13 51 163 62 162 19 -3 26 2 14 10 -11 6 0 35 47 130 34 67 66
119 71 116 5 -3 12 0 16 6 5 8 3 9 -6 4 -8 -5 -11 -3 -8 6 3 8 11 13 17 11 7
-1 10 2 6 8 -3 5 7 27 23 47 16 21 55 74 88 118 67 90 89 117 78 96 -5 -9 -3
-12 5 -7 6 4 9 12 5 17 -3 5 9 27 28 48 18 21 55 67 83 102 27 35 92 107 145
159 141 142 219 243 310 404 l33 58 -27 -17 c-25 -17 -87 -89 -239 -278 -92
-114 -142 -161 -161 -154 -19 8 -21 41 -3 59 13 13 27 42 26 54 -1 8 52 76 76
97 11 10 13 16 5 12 -8 -4 -6 1 4 9 11 9 16 16 10 16 -5 0 -5 3 1 8 6 4 17 21
26 37 65 120 143 236 249 373 116 152 348 459 357 477 5 9 65 75 134 147 68
73 124 138 124 145 0 7 5 12 10 10 6 -1 9 -6 7 -12 -1 -5 9 4 23 20 19 22 24
25 19 10 -5 -17 -2 -16 15 5 36 43 77 131 129 270 71 191 76 210 132 450 79
341 161 576 240 694 60 89 180 277 180 282 0 2 -346 3 -769 2 l-769 -3 -24
-22 c-14 -13 -29 -23 -36 -23 -6 0 -25 -13 -43 -30 -18 -16 -36 -27 -41 -24
-4 3 -8 1 -8 -5 0 -5 6 -12 13 -15 6 -3 0 -3 -15 0 -36 8 -69 -3 -48 -16 10
-6 7 -10 -16 -16 -16 -4 -52 -17 -79 -30 -28 -12 -63 -26 -78 -29 -15 -4 -30
-11 -33 -16 -3 -5 -14 -9 -25 -9 -10 0 -19 -6 -19 -14 0 -18 -57 -41 -156 -61
-43 -9 -111 -25 -151 -35 -97 -25 -260 -39 -558 -48 l-250 -8 -68 -32 c-150
-70 -307 -203 -322 -273 -9 -40 0 -100 31 -201 30 -102 30 -116 -2 -159 -14
-19 -37 -56 -51 -84 l-26 -50 -3 -385 c-1 -212 -4 -396 -7 -410 -3 -14 -8 -63
-12 -110 -9 -120 -30 -210 -72 -314 -72 -182 -127 -231 -316 -287 -155 -45
-193 -62 -291 -137 -32 -24 -60 -41 -63 -38 -4 3 -1 6 5 6 7 0 12 4 12 10 0
12 54 66 101 101 52 39 93 58 209 96 124 41 174 68 223 122 74 82 141 262 155
421 8 78 7 456 0 815 -2 90 22 161 80 244 45 62 45 64 34 105 -7 22 -22 83
-33 135 -21 93 -21 95 -3 130 52 98 168 198 328 286 l69 38 -39 20 c-176 87
-324 187 -324 216 0 6 -5 11 -10 11 -6 0 -20 9 -32 20 -33 30 -41 25 -35 -22
8 -60 21 -504 14 -498 -6 5 -13 119 -24 390 -3 96 -7 180 -8 185 -1 6 -3 20
-3 33 l-2 22 -1944 0 -1944 0 -6 -122 c-3 -68 -8 -206 -11 -308 -10 -327 -17
-465 -25 -480 -5 -8 -49 -40 -99 -70 -49 -30 -90 -57 -90 -60 0 -3 15 -16 35
-30 124 -89 159 -158 183 -360 6 -47 17 -135 25 -197 9 -62 18 -147 21 -190
38 -527 66 -650 169 -746 24 -22 81 -55 81 -47 0 0 38 -13 85 -30 47 -17 111
-39 143 -50 32 -10 67 -26 78 -36 10 -9 19 -14 19 -11 0 26 135 -81 183 -144
34 -46 18 -52 -30 -11 -17 15 -43 36 -58 47 -14 11 -31 25 -38 30 -32 27 -123
66 -227 99 -63 21 -134 46 -157 57 -24 10 -47 19 -52 19 -22 0 -115 98 -133
140 -29 67 -96 417 -113 590 -3 36 -8 72 -10 80 -2 8 -7 35 -10 60 -4 24 -8
47 -10 50 -2 4 -9 42 -14 86 -14 105 -27 182 -46 279 -8 44 -17 93 -20 109 -6
37 -20 58 -94 135 -72 75 -73 69 42 145 85 56 96 70 103 134 4 40 -1 57 -29
112 -60 115 -195 246 -302 296 -53 25 -93 29 -375 39 -118 4 -172 11 -225 27
-38 12 -72 24 -75 28 -9 12 -84 37 -177 60 -51 12 -97 28 -104 36 -8 9 -8 14
-1 14 6 0 13 -4 16 -9 5 -8 106 -26 206 -36 50 -5 53 -4 36 10 -11 8 -27 15
-35 15 -9 0 -34 5 -56 11 -34 10 -37 13 -20 19 18 7 18 9 3 15 -9 3 -22 8 -30
9 -25 5 -53 19 -72 35 -10 9 -20 15 -22 13 -2 -2 -20 2 -40 7 -19 5 -42 7 -50
4 -8 -3 -14 1 -14 9 0 9 -17 20 -40 27 -22 6 -40 16 -40 21 0 6 -9 10 -19 10
-11 0 -21 4 -23 8 -6 16 -127 52 -174 52 l-49 0 45 -26 c25 -14 63 -33 85 -41
22 -8 54 -21 70 -28 17 -7 41 -18 55 -23 14 -6 18 -11 10 -11 -30 -2 -165 41
-273 85 l-108 44 -934 0 -933 0 6 -22z m2377 -199 c-2 -3 -39 5 -82 19 -150
46 -223 74 -218 82 3 5 72 -15 154 -43 82 -29 148 -54 146 -58z m70 61 c3 -5
1 -10 -4 -10 -6 0 -11 5 -11 10 0 6 2 10 4 10 3 0 8 -4 11 -10z m-2030 -568
c-3 -3 -11 0 -18 7 -9 10 -8 11 6 5 10 -3 15 -9 12 -12z m175 -190 c18 -26 37
-42 47 -40 12 2 20 -10 31 -47 8 -27 18 -59 22 -70 5 -11 11 -31 14 -45 3 -14
12 -47 20 -75 8 -27 22 -77 31 -109 19 -68 56 -146 126 -261 45 -74 46 -77 14
-41 -37 41 -112 151 -138 201 -27 54 -87 203 -87 219 0 8 -4 18 -10 21 -5 3
-10 16 -10 29 0 12 -4 26 -9 32 -5 5 -14 27 -21 49 -7 22 -30 75 -51 118 -40
82 -31 91 21 19z m10049 -581 c-12 -28 -24 -50 -26 -47 -2 2 6 27 18 55 12 29
23 50 25 48 3 -2 -5 -27 -17 -56z m-38 -88 c-12 -20 -14 -14 -5 12 4 9 9 14
11 11 3 -2 0 -13 -6 -23z m-40 -86 c-10 -9 -11 -8 -5 6 3 10 9 15 12 12 3 -3
0 -11 -7 -18z m-271 -260 c0 -2 -12 -14 -27 -28 l-28 -24 24 28 c23 25 31 32
31 24z m-100 -127 c-17 -22 -34 -40 -37 -40 -6 0 10 22 41 58 32 37 30 25 -4
-18z m-5108 -634 c-11 -74 -13 -145 -7 -321 7 -211 9 -228 28 -246 22 -20 67
-26 67 -9 0 6 13 10 28 10 15 0 33 5 40 12 9 9 12 9 12 -3 0 -8 -5 -20 -11
-26 -15 -15 73 -59 166 -84 60 -16 99 -18 275 -15 216 3 243 8 374 63 32 13
60 22 62 20 7 -7 -83 -66 -131 -87 -59 -25 -213 -40 -419 -40 l-159 0 44 -34
c24 -18 55 -47 69 -63 14 -17 41 -41 60 -54 19 -13 50 -39 68 -57 31 -30 31
-32 10 -28 -13 2 -52 21 -88 42 -96 56 -173 95 -177 90 -3 -2 1 -14 7 -26 6
-12 9 -24 7 -27 -3 -3 -12 8 -20 24 -21 39 -132 141 -172 157 -30 13 -156 36
-192 36 -35 0 -53 17 -32 31 11 6 9 10 -6 15 -11 5 -20 3 -23 -4 -4 -13 -62
-14 -102 -3 -20 6 -13 9 32 13 109 12 93 35 -24 37 -45 1 -58 5 -58 16 0 17
26 20 36 4 5 -8 8 -8 14 0 3 7 36 13 71 15 66 4 102 10 119 21 6 4 10 91 9
233 0 228 14 382 35 382 1 0 -4 -42 -12 -94z m-3022 -328 l23 -33 -26 24 c-15
14 -27 28 -27 33 0 14 5 9 30 -24z m6296 -27 c-4 -5 -25 -19 -49 -30 -23 -11
-58 -36 -77 -55 -40 -39 -90 -127 -75 -133 29 -11 39 -23 29 -33 -14 -14 -60
-27 -389 -110 -149 -38 -293 -80 -321 -95 -28 -14 -64 -43 -80 -65 -16 -22
-32 -40 -36 -40 -13 0 11 62 37 96 38 50 82 68 281 118 391 98 428 112 470
183 41 71 95 124 149 149 55 25 69 29 61 15z m-5075 -125 c30 -40 35 -56 20
-56 -5 0 -11 10 -15 23 -3 12 -22 43 -43 67 -20 25 -27 36 -14 25 13 -11 37
-38 52 -59z m3270 -50 c87 5 112 3 129 -9 21 -15 21 -15 -12 -22 -59 -13 -85
-45 -37 -45 10 0 20 -3 22 -7 3 -5 -29 -7 -71 -7 -110 2 -337 -49 -377 -85
-11 -10 -33 -26 -50 -34 -16 -9 -68 -45 -115 -82 -83 -64 -163 -120 -231 -159
l-34 -20 83 -10 c45 -6 82 -15 82 -20 0 -6 -45 -9 -104 -7 -78 2 -119 -2 -160
-15 -31 -10 -56 -21 -56 -24 0 -7 114 -39 212 -60 84 -18 157 -51 196 -88 46
-45 87 -102 73 -102 -6 0 -15 9 -21 20 -5 10 -36 37 -67 60 -58 42 -123 64
-313 110 -52 13 -101 25 -107 28 -7 2 -31 -25 -54 -62 -23 -36 -42 -66 -44
-66 -5 0 8 55 14 60 3 3 15 23 26 45 12 22 43 57 70 78 28 20 49 42 48 47 -2
5 3 7 10 4 19 -7 142 59 191 102 24 22 63 55 86 74 51 43 58 50 90 91 14 18
30 38 35 45 6 6 33 24 60 39 65 36 75 44 69 60 -7 18 48 41 120 50 31 4 59 11
61 15 3 5 20 4 37 -1 17 -5 80 -6 139 -3z m-3212 -50 c24 -21 214 -79 423
-130 189 -46 263 -72 293 -106 10 -11 28 -43 42 -72 l24 -53 -45 51 c-58 66
-98 84 -286 128 -150 35 -216 53 -357 97 -38 12 -92 26 -121 32 -54 12 -62 25
-24 42 12 5 22 13 22 17 0 12 12 10 29 -6z m1471 -36 c8 -5 11 -10 5 -10 -5 0
-17 5 -25 10 -8 5 -10 10 -5 10 6 0 17 -5 25 -10z m4310 -7 c-14 -2 -61 -11
-105 -20 -44 -9 -89 -17 -100 -19 -11 -1 -35 -7 -53 -13 -29 -9 -32 -8 -22 4
17 20 181 53 265 52 23 0 29 -2 15 -4z m-843 -9 c-3 -3 -12 -4 -19 -1 -8 3 -5
6 6 6 11 1 17 -2 13 -5z m-6037 -84 c6 -11 8 -20 6 -20 -3 0 -10 9 -16 20 -6
11 -8 20 -6 20 3 0 10 -9 16 -20z m134 -240 l28 -45 -30 33 c-28 30 -122 199
-122 219 0 4 22 -30 48 -77 26 -47 60 -105 76 -130z m3081 -30 c3 -5 2 -10 -4
-10 -5 0 -13 5 -16 10 -3 6 -2 10 4 10 5 0 13 -4 16 -10z m35 -108 c0 -15 -2
-15 -10 -2 -13 20 -13 33 0 25 6 -3 10 -14 10 -23z m2190 -124 c0 -25 -217
-225 -291 -268 -41 -24 -92 -57 -114 -74 -22 -17 -44 -34 -50 -38 -5 -4 -26
-20 -45 -35 -19 -16 -47 -35 -62 -42 -15 -8 -26 -19 -25 -25 1 -6 -8 -10 -20
-8 -12 2 -70 -19 -129 -46 l-106 -50 90 -3 c82 -4 113 -11 101 -24 -3 -2 -120
-5 -261 -7 -141 -1 -255 -4 -253 -6 2 -2 36 -6 77 -9 40 -3 75 -7 76 -9 2 -1
-387 -2 -865 -1 -916 2 -1083 -4 -1282 -44 -52 -11 -151 -26 -220 -34 -210
-26 -276 -54 -366 -159 -74 -85 -71 -53 4 47 78 103 184 144 410 157 86 5 228
16 316 24 88 9 192 16 232 16 39 0 75 5 78 10 4 6 -31 10 -97 11 -57 0 -146 4
-198 8 -92 6 -203 1 -285 -14 -27 -5 -37 -4 -30 3 14 13 102 40 145 44 l35 3
-30 16 c-38 20 -201 115 -280 162 -33 20 -82 52 -110 72 -27 20 -77 53 -110
74 -66 42 -205 166 -205 184 0 6 21 -9 48 -34 87 -83 96 -89 347 -202 39 -18
124 -60 190 -95 193 -101 264 -132 354 -154 82 -19 120 -20 991 -21 989 -2
1002 -2 1113 54 49 25 209 117 369 214 82 50 114 65 132 65 32 0 108 42 157
86 80 74 149 144 149 154 0 6 5 10 10 10 6 0 10 -5 10 -12z m-3882 -48 c-2 -7
-10 1 -17 16 -12 27 -11 28 4 12 10 -9 16 -21 13 -28z m1684 -2 c-7 -7 -12 -8
-12 -2 0 14 12 26 19 19 2 -3 -1 -11 -7 -17z m1639 -628 c52 -12 126 -30 164
-42 39 -11 75 -21 80 -22 51 -8 173 -121 190 -176 l7 -25 -18 24 c-60 79 -113
112 -239 150 -86 27 -326 82 -380 89 -71 8 -59 19 23 21 49 1 114 -6 173 -19z"/>
<path d="M5710 9479 c0 -5 5 -7 10 -4 6 3 10 8 10 11 0 2 -4 4 -10 4 -5 0 -10
-5 -10 -11z"/>
<path d="M6968 9503 c12 -3 22 -9 22 -14 0 -5 30 -9 68 -9 88 1 62 16 -38 22
-41 3 -65 3 -52 1z"/>
<path d="M7138 8263 c6 -2 18 -2 25 0 6 3 1 5 -13 5 -14 0 -19 -2 -12 -5z"/>
<path d="M2921 12796 c8 -7 334 -114 382 -125 57 -14 260 -24 253 -13 -2 4 10
7 28 7 18 -1 41 2 52 6 11 4 -19 8 -71 9 -148 2 -139 14 32 39 152 22 302 54
333 72 8 5 -209 9 -499 9 -283 0 -512 -2 -510 -4z"/>
<path d="M8510 12784 c0 -8 5 -12 10 -9 6 4 8 11 5 16 -9 14 -15 11 -15 -7z"/>
<path d="M8946 12738 c183 -172 192 -178 273 -178 154 0 669 86 896 149 38 11
73 17 77 15 4 -3 8 -1 8 3 0 5 27 19 60 32 34 14 63 28 66 33 3 4 -321 8 -721
8 l-726 0 67 -62z"/>
<path d="M11995 12786 c-6 -7 -28 -38 -51 -67 -47 -63 -157 -239 -148 -239 3
0 -2 -7 -10 -16 -9 -8 -14 -20 -11 -25 4 -5 2 -9 -3 -9 -13 0 -105 -182 -136
-267 -31 -87 -95 -345 -97 -393 -2 -19 -6 -42 -10 -50 -4 -8 -10 -39 -14 -67
-6 -48 -5 -52 11 -46 13 5 15 3 9 -8 -7 -12 -5 -12 6 -1 12 11 12 14 -1 22
-13 8 -13 10 2 10 10 0 19 12 24 33 9 45 112 257 124 257 6 0 10 5 10 12 0 6
24 37 53 68 204 219 290 322 308 366 13 34 14 243 0 257 -9 9 -76 -66 -168
-190 -29 -39 -58 -75 -64 -78 -20 -13 34 80 96 165 112 153 127 179 121 205
-3 13 -2 35 4 49 9 24 7 26 -18 26 -15 0 -32 -6 -37 -14z"/>
<path d="M12168 12768 c-32 -67 -37 -101 -27 -178 5 -41 12 -100 15 -130 3
-30 7 -61 10 -68 4 -13 322 258 419 357 l49 51 -225 0 -226 0 -15 -32z"/>
<path d="M12615 12738 c-166 -147 -244 -225 -259 -261 -8 -21 -11 -35 -6 -32
6 3 10 1 10 -6 0 -6 10 1 22 17 39 52 82 95 111 110 38 20 34 6 -15 -46 -47
-51 -113 -150 -152 -228 -31 -61 -61 -191 -70 -302 -4 -41 -11 -109 -16 -150
-5 -41 -14 -124 -20 -185 -11 -111 -15 -140 -26 -169 -14 -35 17 -13 43 32 15
26 40 61 54 77 74 82 98 109 201 228 61 70 115 127 120 127 17 0 6 -25 -42
-96 -27 -40 -50 -77 -50 -82 0 -5 -9 -17 -20 -27 -11 -10 -20 -22 -20 -27 0
-11 -77 -125 -87 -130 -5 -1 -26 -25 -48 -53 -22 -27 -48 -59 -57 -69 -10 -11
-18 -23 -18 -28 0 -10 17 -10 22 0 2 4 44 35 93 67 50 33 126 86 170 120 44
33 117 85 162 115 l82 55 1 503 0 502 -58 0 c-57 0 -59 -1 -127 -62z m140 -75
c-11 -3 -25 -10 -32 -15 -7 -5 -18 -6 -24 -2 -16 9 15 23 51 22 20 0 21 -1 5
-5z"/>
<path d="M4326 12721 c-7 -11 22 -23 36 -15 6 4 5 10 -3 15 -18 11 -26 11 -33
0z"/>
<path d="M4375 12664 c-67 -58 -195 -140 -288 -185 l-88 -42 43 -25 c121 -71
236 -186 306 -306 38 -64 40 -66 46 -39 8 42 29 531 25 585 l-4 46 -40 -34z"/>
<path d="M4253 12673 c1 -17 4 -19 14 -11 15 12 18 22 4 14 -5 -4 -11 0 -14 6
-3 7 -4 3 -4 -9z"/>
<path d="M4221 12653 c-11 -20 -20 -21 -32 -1 -5 7 -9 9 -9 3 0 -5 4 -16 9
-23 7 -12 12 -12 30 -1 11 8 21 19 21 26 0 18 -7 16 -19 -4z"/>
<path d="M9885 12630 c-38 -10 -89 -19 -112 -19 -24 -1 -43 -6 -43 -12 0 -12
146 -4 164 9 6 5 22 9 35 10 13 0 31 8 40 17 20 19 10 19 -84 -5z"/>
<path d="M4152 12622 c-7 -9 -11 -12 -8 -6 3 6 -1 11 -9 11 -8 0 -13 -5 -12
-11 1 -6 -8 -10 -19 -8 -19 3 -42 -24 -30 -35 6 -7 106 38 106 48 0 16 -16 17
-28 1z"/>
<path d="M9643 12589 c-11 -5 -1 -8 30 -8 26 -1 47 4 47 9 0 11 -47 10 -77 -1z"/>
<path d="M3385 12580 c-5 -8 23 -16 85 -23 14 -1 30 -5 35 -9 11 -6 48 -11 79
-9 17 1 16 3 -5 19 -25 20 -27 20 -101 27 -33 2 -48 0 -48 -8 0 -8 -3 -8 -8
-2 -10 14 -30 17 -37 5z"/>
<path d="M3580 12570 c0 -6 12 -10 27 -10 29 0 24 12 -7 17 -11 2 -20 -2 -20
-7z"/>
<path d="M9440 12540 c-74 -4 -155 -6 -178 -4 -57 3 -43 -9 36 -30 64 -18 220
-24 277 -11 64 14 93 27 99 40 6 17 5 17 -234 5z"/>
<path d="M12030 12233 c-30 -37 -73 -87 -95 -112 -112 -127 -190 -244 -278
-416 -114 -225 -125 -248 -162 -340 -22 -55 -71 -142 -130 -230 -98 -148 -133
-210 -122 -221 18 -19 251 84 367 161 38 25 78 47 89 48 11 0 18 4 16 7 -2 3
18 16 45 29 27 13 57 32 66 42 9 11 21 19 26 19 11 0 139 95 178 132 46 42 67
90 80 183 7 50 16 93 19 97 9 11 2 -100 -9 -139 -4 -18 -5 -33 -1 -33 5 0 15
33 25 73 17 75 20 191 5 181 -5 -3 -9 -13 -9 -22 -1 -13 -4 -12 -13 6 -9 15
-13 81 -15 205 -2 141 -18 398 -26 397 0 0 -26 -30 -56 -67z"/>
<path d="M0 9189 l0 -2575 55 -23 c55 -23 163 -95 225 -152 l35 -31 -40 28
c-22 15 -60 43 -84 61 -43 33 -126 76 -169 88 l-22 6 0 -2955 0 -2955 102 107
c56 59 221 226 366 371 265 266 372 380 372 397 0 5 12 21 27 35 35 32 109
128 150 194 38 61 92 182 134 301 49 140 128 305 229 479 51 88 117 203 145
255 221 400 241 432 449 685 141 171 163 205 232 340 43 83 127 231 187 329
78 126 134 234 190 360 119 274 179 384 271 493 85 103 251 249 450 399 66 51
137 106 157 123 20 17 43 31 52 31 8 0 17 9 20 21 4 15 12 20 29 17 13 -2 22
2 21 9 -1 6 14 20 35 30 26 13 36 24 34 36 -3 16 2 18 30 16 38 -4 94 31 78
47 -6 6 -2 10 9 10 11 0 17 -4 14 -9 -3 -5 4 -4 16 2 17 9 20 17 14 39 -6 24
-5 26 10 13 10 -7 17 -10 17 -5 0 5 5 2 10 -6 8 -13 10 -12 10 3 0 9 7 17 15
17 7 0 18 6 22 13 13 20 63 49 76 43 9 -3 9 -5 0 -5 -7 -1 -13 -6 -13 -12 0
-8 4 -8 13 0 8 6 12 23 9 42 -3 23 -1 30 7 24 7 -4 10 -13 7 -21 -11 -28 11
-13 66 44 31 31 77 77 104 101 27 24 70 65 96 90 37 35 51 42 60 33 9 -9 6
-18 -15 -40 -35 -37 -34 -45 3 -24 16 9 30 22 30 28 0 7 7 25 15 40 22 43 19
56 -20 83 -19 13 -35 27 -35 32 0 5 -6 9 -13 9 -6 0 -31 17 -54 38 -22 20 -48
42 -56 47 -8 6 -52 39 -98 75 -78 60 -99 77 -165 138 -14 12 -28 22 -33 22 -4
0 -21 13 -37 30 -16 16 -32 30 -37 30 -22 1 -250 182 -420 333 -32 29 -61 52
-65 52 -4 1 -53 46 -109 101 -56 54 -114 111 -130 125 -37 33 -145 156 -157
177 -5 10 -19 28 -31 42 -20 24 -79 119 -79 130 0 3 -17 39 -38 80 -21 41 -38
79 -38 84 0 31 -129 395 -165 466 -87 174 -460 771 -580 932 -27 36 -69 92
-92 125 -23 32 -50 67 -60 78 -47 51 -169 255 -153 255 6 0 14 -8 18 -18 9
-22 155 -192 160 -187 15 15 -126 205 -152 205 -13 0 -56 41 -56 54 0 4 -9 21
-21 37 -11 17 -34 69 -51 117 -32 94 -76 179 -143 276 -24 33 -68 102 -98 151
-30 50 -76 126 -103 170 -27 44 -55 92 -63 107 -12 23 -97 137 -129 173 -28
31 -282 274 -300 286 -68 48 -184 157 -405 384 -48 50 -126 126 -172 170 -98
93 -140 135 -160 161 -12 16 -14 -334 -15 -2557z m792 -1533 c70 -20 167 -40
215 -46 239 -30 352 -75 611 -244 37 -24 114 -67 172 -97 70 -35 99 -54 86
-57 -30 -6 -127 16 -197 45 -59 24 -75 26 -209 26 -143 0 -148 -1 -360 -56
-260 -67 -295 -73 -500 -92 -36 -3 -83 -8 -105 -11 -67 -8 -28 13 55 30 182
38 224 48 373 85 166 42 207 59 240 103 l20 26 -22 46 c-49 100 -155 150 -546
257 -48 13 -123 24 -189 27 -117 5 -125 19 -17 31 60 7 128 -7 373 -73z m-659
-73 c-18 -2 -48 -2 -65 0 -18 2 -4 4 32 4 36 0 50 -2 33 -4z m2297 -1048 c206
-67 283 -101 440 -195 65 -39 131 -75 149 -81 17 -6 31 -15 31 -19 0 -5 -33
-14 -72 -20 -218 -35 -435 -93 -531 -141 -55 -28 -237 -130 -237 -133 0 0 84
-1 188 -2 187 -1 300 -17 327 -46 7 -8 5 -9 -9 -4 -39 13 -206 26 -357 26
-145 0 -158 -2 -205 -25 -27 -13 -78 -51 -114 -83 -78 -71 -122 -94 -220 -117
-266 -63 -523 -130 -633 -165 l-128 -41 20 -28 c19 -26 19 -31 6 -75 -23 -75
-7 -120 76 -216 38 -44 65 -80 59 -80 -25 0 -231 112 -251 136 -7 9 -12 34
-10 59 2 39 -1 45 -41 79 -24 21 -70 53 -103 71 -56 32 -227 93 -305 110 -69
15 -10 15 91 0 154 -22 274 -61 333 -107 47 -36 74 -49 61 -28 -3 6 -2 10 3
10 5 0 15 -11 22 -25 15 -28 28 -32 36 -10 8 19 -12 44 -43 56 -27 10 -30 27
-6 36 24 9 53 35 53 48 0 12 37 24 268 86 89 24 162 47 162 50 0 3 -19 9 -42
12 -95 14 -506 146 -480 155 5 1 67 -16 138 -38 334 -107 442 -122 574 -81
114 36 123 49 59 81 -58 30 -42 35 36 11 110 -34 121 -31 263 77 71 54 86 70
57 58 -15 -5 -344 9 -445 20 -233 25 -639 120 -730 170 -68 37 -310 111 -310
94 0 -5 3 -10 8 -13 4 -2 0 -2 -8 1 -8 2 -53 13 -100 25 -47 11 -78 22 -69 24
9 2 44 -2 78 -10 34 -8 64 -10 67 -6 6 10 -14 19 -116 50 -39 12 -69 24 -66
26 5 5 183 -47 231 -67 11 -4 47 -13 80 -20 79 -16 188 -52 283 -95 125 -55
340 -113 562 -150 129 -22 533 -33 555 -15 8 7 22 9 31 6 9 -4 24 0 33 7 9 8
36 26 61 40 l45 27 -36 0 c-20 0 -52 7 -70 15 l-34 16 44 -5 c68 -7 158 11
256 53 110 46 220 83 340 114 50 12 92 27 95 32 20 39 -587 295 -699 295 -24
0 -41 3 -37 7 8 8 87 22 101 17 6 -1 89 -28 185 -59z"/>
<path d="M1081 7543 c77 -39 143 -109 147 -157 1 -23 -4 -43 -13 -52 -22 -23
-18 -37 8 -30 12 3 98 6 191 6 199 0 197 -4 38 103 -117 80 -178 108 -298 136
-121 28 -139 27 -73 -6z"/>
<path d="M12735 11503 c-33 -25 -150 -137 -260 -247 -110 -111 -248 -243 -307
-294 -139 -122 -187 -177 -244 -287 -26 -49 -64 -117 -84 -150 -20 -33 -58
-100 -85 -150 -177 -331 -363 -601 -536 -780 -81 -84 -109 -116 -109 -127 0
-5 -12 -25 -27 -45 -15 -19 -48 -69 -75 -112 -26 -42 -51 -81 -56 -86 -41 -49
-192 -296 -245 -403 -37 -74 -125 -222 -197 -329 -149 -222 -208 -334 -281
-530 -137 -368 -305 -602 -621 -867 -70 -58 -130 -106 -134 -106 -4 0 -17 -10
-29 -22 -12 -13 -35 -32 -51 -43 -16 -11 -41 -32 -56 -47 -14 -16 -31 -28 -38
-28 -6 0 -25 -12 -41 -27 -17 -16 -43 -39 -57 -53 -15 -13 -29 -24 -32 -24 -3
1 -22 -13 -44 -30 -21 -17 -42 -31 -47 -31 -5 0 -25 -14 -44 -32 -19 -18 -50
-35 -69 -38 -22 -5 -33 -12 -32 -22 0 -9 -14 -24 -33 -35 -18 -10 -42 -29 -51
-41 -15 -18 -20 -19 -34 -8 -13 11 -16 11 -16 0 -1 -21 -32 -54 -65 -70 -17
-8 -29 -22 -29 -31 1 -9 -5 -14 -15 -12 -15 4 -211 -158 -211 -174 0 -12 53
-69 94 -101 21 -17 79 -68 129 -114 49 -45 94 -85 101 -89 7 -5 6 -8 -4 -8 -8
1 -35 19 -60 41 -69 61 -161 132 -165 127 -3 -2 17 -25 43 -51 74 -73 90 -86
96 -79 4 3 19 -6 34 -20 15 -13 44 -32 65 -42 20 -9 37 -19 37 -21 0 -6 -33 6
-49 19 -12 8 -13 8 -7 -2 10 -17 204 -145 225 -150 9 -1 30 -4 46 -6 17 -2 33
-4 36 -5 3 -1 23 -15 44 -31 37 -29 39 -30 59 -13 12 10 15 11 9 3 -7 -8 -13
-17 -13 -21 0 -7 117 -89 127 -89 4 0 17 -10 29 -21 13 -12 32 -27 42 -33 11
-6 59 -42 107 -81 49 -38 133 -105 187 -148 154 -122 336 -316 441 -470 46
-68 207 -384 207 -406 0 -32 141 -251 162 -251 4 0 7 -6 6 -12 -2 -7 3 -12 10
-10 8 1 11 -2 6 -9 -3 -6 0 -15 7 -20 8 -4 14 -14 14 -21 0 -13 179 -354 245
-468 21 -36 90 -127 153 -204 111 -135 141 -181 425 -651 171 -282 324 -603
390 -815 11 -36 32 -105 47 -155 15 -49 34 -100 42 -113 7 -12 9 -22 5 -22
-14 0 -54 96 -112 264 -62 179 -108 285 -197 454 -164 312 -228 409 -338 507
-96 86 -169 194 -185 272 -19 96 -38 136 -105 234 -148 216 -176 261 -245 394
-87 167 -170 307 -255 430 -34 50 -85 135 -112 190 -83 165 -109 201 -194 261
-107 77 -135 100 -198 168 -142 152 -308 282 -451 352 -33 17 -47 19 -52 11
-4 -7 -8 -7 -8 -2 0 6 -5 2 -11 -8 -8 -13 -7 -22 1 -32 8 -10 8 -15 -1 -20 -7
-5 -2 -15 17 -31 26 -21 27 -23 9 -24 -11 0 -29 6 -40 14 -11 7 -28 13 -39 13
-45 -1 20 -167 100 -256 25 -28 43 -51 39 -51 -8 0 -91 84 -123 124 -12 16
-24 27 -26 25 -5 -5 24 -92 33 -99 3 -3 19 -24 35 -47 15 -23 33 -41 39 -40 6
1 11 -3 12 -10 0 -17 51 -68 343 -348 52 -49 124 -126 160 -170 37 -44 98
-116 138 -160 39 -44 87 -105 106 -136 37 -58 81 -97 161 -143 26 -16 47 -30
47 -33 0 -11 -107 58 -185 120 -46 37 -102 75 -124 85 -21 9 -97 72 -168 139
-124 118 -183 169 -183 160 0 -2 -55 50 -123 117 -152 149 -169 164 -184 159
-14 -5 3 -63 18 -63 5 0 9 -7 9 -17 0 -29 185 -327 436 -704 24 -36 44 -71 44
-77 0 -7 5 -12 11 -12 5 0 8 -4 5 -9 -3 -5 1 -12 10 -15 8 -3 13 -10 9 -15 -9
-15 53 -111 114 -177 102 -108 210 -265 282 -406 38 -76 68 -138 65 -138 -4 0
-64 103 -101 173 -11 21 -34 55 -51 75 -17 21 -61 79 -97 131 -65 94 -275 327
-285 317 -3 -3 -12 0 -21 7 -44 35 32 -57 111 -135 49 -48 87 -91 85 -95 -3
-5 47 -67 110 -138 89 -100 123 -147 150 -205 18 -40 46 -90 61 -110 15 -19
26 -39 24 -43 -1 -5 2 -6 7 -3 16 10 25 -15 10 -26 -11 -8 -11 -9 2 -5 10 3
22 -5 33 -24 9 -16 33 -50 53 -76 l35 -48 -43 40 -42 40 32 -45 c18 -25 58
-82 87 -127 54 -83 78 -109 49 -53 -8 16 -15 36 -15 44 0 9 -16 34 -36 56 -20
22 -33 40 -30 40 18 0 66 -73 108 -167 26 -57 73 -145 104 -196 261 -420 252
-407 373 -527 64 -63 177 -160 251 -216 161 -121 177 -130 125 -74 l-40 42 69
-51 c38 -28 77 -51 87 -51 9 0 19 -3 21 -7 4 -11 78 -65 78 -59 0 13 156 -134
177 -166 4 -7 22 -26 40 -42 41 -37 38 -15 -7 56 -35 53 -58 99 -56 108 1 3
-9 18 -21 34 -13 16 -23 32 -23 37 0 5 -25 49 -55 99 -55 90 -55 91 -24 73 17
-10 43 -34 58 -53 67 -90 154 -178 184 -187 17 -5 36 -18 42 -30 6 -11 22 -38
36 -59 14 -22 36 -55 48 -74 13 -19 20 -26 17 -15 -8 29 61 -51 85 -98 11 -21
41 -61 67 -91 26 -29 81 -94 122 -145 78 -96 268 -296 333 -351 l37 -32 0
2537 0 2538 -147 -7 c-193 -10 -400 -48 -479 -89 -16 -8 -67 -49 -114 -91 -47
-43 -113 -98 -147 -123 -45 -34 -59 -49 -50 -56 8 -6 7 -7 -5 -3 -10 3 -50
-11 -90 -31 -76 -37 -258 -106 -264 -100 -2 2 20 17 48 32 104 56 232 139 337
218 164 124 195 151 180 155 -8 3 -41 17 -74 32 -67 30 -135 53 -210 70 -27 6
-111 25 -185 41 -74 17 -209 46 -300 64 -293 60 -285 57 -449 184 -47 38 -101
73 -120 80 -21 7 -119 11 -260 12 -269 1 -256 13 24 23 110 4 204 11 209 16
12 12 -141 83 -166 77 -11 -3 -17 -3 -14 0 9 9 -153 69 -279 103 -117 32 -254
54 -398 65 l-88 7 153 75 c167 82 295 138 488 215 69 27 169 70 223 95 54 25
100 43 103 40 11 -11 -64 -67 -134 -102 -40 -20 -142 -63 -225 -96 -200 -80
-368 -160 -364 -173 2 -6 67 -28 144 -48 219 -58 592 -185 648 -221 49 -31 53
-32 160 -31 108 0 252 20 350 49 28 8 120 33 205 55 203 54 312 92 437 151 56
27 112 49 125 49 13 1 48 9 78 20 66 22 76 20 18 -5 -24 -10 -68 -29 -98 -43
-321 -144 -429 -180 -805 -266 -117 -26 -241 -48 -299 -52 l-99 -7 49 -44 c94
-83 178 -119 329 -142 106 -16 197 0 463 80 73 22 138 39 143 37 16 -5 -292
-113 -383 -134 -43 -10 -78 -22 -78 -26 0 -4 1 -8 3 -8 1 0 36 -12 77 -26 41
-14 161 -45 265 -70 105 -24 236 -56 291 -71 l102 -27 88 17 c153 30 234 38
408 43 93 2 171 5 173 7 1 2 2 1352 1 3000 l-3 2997 -60 -47z m-485 -3848
c-52 -30 -211 -74 -360 -99 -317 -54 -403 -88 -674 -269 -50 -33 -104 -61
-125 -64 -46 -7 -45 -6 114 104 260 180 358 218 685 258 142 18 303 51 340 71
34 18 51 17 20 -1z m-710 -325 c52 -11 139 -32 192 -46 54 -13 109 -25 123
-26 14 -1 25 -5 25 -9 0 -7 11 -10 196 -44 120 -23 142 -24 255 -15 68 5 133
9 144 9 21 -1 -204 -37 -240 -39 -18 -1 -17 -2 5 -15 14 -8 53 -24 88 -36 97
-32 68 -32 -46 1 -56 17 -117 30 -135 30 -47 0 -260 50 -507 120 -80 23 -169
45 -199 50 -29 5 -60 15 -68 22 -14 11 -13 13 8 19 28 8 33 7 159 -21z m1013
-127 c-7 -2 -21 -2 -30 0 -10 3 -4 5 12 5 17 0 24 -2 18 -5z m227 -493 c-8 -5
-22 -9 -30 -9 -10 0 -8 3 5 9 27 12 43 12 25 0z m-275 -70 c-27 -12 -43 -12
-25 0 8 5 22 9 30 9 10 0 8 -3 -5 -9z m-167 -196 c-15 -8 -38 -25 -50 -37 -30
-29 -205 -120 -238 -123 -14 -1 -50 -4 -80 -7 -30 -2 -44 -3 -30 0 79 14 151
39 228 80 48 25 94 52 102 58 21 17 73 44 85 44 6 0 -2 -6 -17 -15z m-571
-160 c-3 -3 -12 -4 -19 -1 -8 3 -5 6 6 6 11 1 17 -2 13 -5z m123 -8 c8 -2 -11
-4 -42 -5 -32 0 -58 2 -58 7 0 7 64 6 100 -2z m-3110 -306 c0 -5 -2 -10 -4
-10 -3 0 -8 5 -11 10 -3 6 -1 10 4 10 6 0 11 -4 11 -10z m2449 -3774 c14 -15
29 -33 35 -40 6 -6 40 -47 76 -91 36 -44 68 -81 72 -83 12 -5 10 -42 -2 -42
-5 0 -7 7 -4 15 4 9 0 15 -10 16 -9 1 -20 3 -26 4 -5 1 -14 3 -20 4 -5 0 -9 4
-7 9 3 11 -33 45 -65 61 -15 8 -25 18 -22 23 3 4 -4 8 -15 8 -16 0 -21 -7 -22
-27 -1 -23 -3 -21 -11 12 -5 22 -15 73 -22 113 -14 80 -11 81 43 18z"/>
<path d="M11494 11502 c-10 -6 -154 -296 -154 -309 0 -2 -18 -32 -41 -66 l-40
-62 57 60 c99 105 164 229 188 360 5 28 5 28 -10 17z"/>
<path d="M1013 11053 c88 -97 162 -167 360 -343 20 -18 35 -35 32 -38 -2 -2
-28 18 -57 46 -64 61 -135 115 -180 138 -18 9 -42 24 -52 33 -11 9 -16 11 -13
4 4 -6 4 -19 1 -27 -6 -14 -9 -15 -28 -3 -20 13 -68 12 -50 -2 26 -18 128
-176 212 -326 121 -217 222 -370 307 -465 37 -41 77 -87 88 -102 12 -16 27
-28 36 -28 8 0 12 -3 8 -6 -8 -8 54 -151 125 -284 34 -63 77 -146 96 -185 19
-38 48 -96 64 -129 16 -32 93 -158 172 -280 162 -251 161 -249 347 -561 76
-126 143 -234 148 -240 6 -5 15 -14 20 -20 6 -5 25 -28 43 -50 l33 -39 -32 23
c-18 12 -33 28 -33 35 0 8 -7 20 -16 27 -14 11 -13 6 3 -26 12 -22 37 -81 56
-131 44 -115 76 -177 142 -279 62 -96 81 -114 72 -66 -6 26 -4 30 6 19 21 -22
57 -84 57 -100 0 -24 122 -178 141 -178 3 0 2 19 -3 43 -5 23 -12 60 -17 82
-4 23 -11 47 -15 54 -6 9 -5 12 3 10 7 -3 26 -29 42 -58 17 -30 43 -73 59 -96
41 -59 137 -158 148 -151 5 3 19 -6 32 -19 25 -26 40 -25 40 5 0 10 7 26 16
35 9 8 13 22 10 30 -8 23 10 18 28 -7 15 -22 15 -20 13 39 -1 34 1 65 5 68 4
4 16 -11 28 -34 11 -23 22 -41 25 -41 7 0 -6 124 -14 132 -4 5 -5 -9 -4 -30 3
-25 1 -32 -5 -22 -13 22 -35 117 -30 132 3 7 -1 27 -8 44 -18 43 -27 97 -15
90 9 -6 -9 54 -19 64 -3 3 -19 28 -35 55 -17 28 -35 59 -42 70 -7 11 -22 38
-33 60 -21 41 -32 61 -50 93 -6 9 -16 28 -22 42 -7 14 -22 34 -33 45 -11 11
-42 47 -70 80 -93 110 -210 227 -282 282 -40 29 -75 63 -78 73 -3 10 -15 22
-26 25 -10 4 -19 12 -19 19 0 7 -9 21 -20 31 -11 10 -20 23 -20 28 0 6 -8 19
-17 29 -15 17 -15 20 -3 28 13 8 12 12 -5 24 -16 12 -17 18 -7 24 10 7 7 13
-12 25 -14 10 -31 17 -38 17 -7 0 -19 9 -26 20 -6 11 -18 17 -25 14 -8 -3 -29
14 -51 41 -22 26 -45 44 -54 43 -10 -2 -17 3 -17 11 0 8 -20 34 -44 57 -33 33
-40 44 -26 44 17 0 97 -63 159 -125 34 -35 126 -99 202 -141 80 -44 200 -152
349 -314 112 -122 236 -280 256 -327 12 -25 72 -124 80 -129 20 -12 11 23 -27
113 -8 17 -14 37 -14 45 0 7 -6 22 -14 33 -7 11 -17 31 -21 45 -8 28 -65 153
-123 271 -20 42 -41 74 -46 71 -5 -3 -7 2 -3 11 3 9 1 22 -6 29 -7 7 -12 20
-12 28 0 8 -5 14 -12 13 -6 -1 -10 5 -8 15 7 44 -104 207 -256 374 -126 138
-179 201 -179 210 0 5 -6 8 -14 8 -31 0 -202 232 -277 378 -27 51 -103 282
-93 282 2 0 16 -19 31 -42 14 -24 28 -37 30 -31 3 7 -24 66 -60 130 -35 65
-81 150 -102 188 -36 66 -63 110 -145 230 -53 78 -198 217 -260 249 -47 25
-144 68 -240 107 -14 6 -92 40 -175 76 -82 35 -166 71 -185 79 l-35 15 25 -21
c14 -11 51 -34 84 -51 32 -17 56 -32 53 -35 -2 -2 -79 34 -171 81 -92 47 -170
85 -173 85 -3 0 1 -8 10 -17z m407 -185 c0 -6 -6 -5 -15 2 -8 7 -15 14 -15 16
0 2 7 1 15 -2 8 -4 15 -11 15 -16z m1601 -1945 c13 -16 12 -17 -3 -4 -10 7
-18 15 -18 17 0 8 8 3 21 -13z m37 -43 c7 -11 9 -20 4 -20 -4 0 -13 9 -20 20
-7 11 -9 20 -4 20 4 0 13 -9 20 -20z m-398 -35 c0 -8 -4 -15 -10 -15 -5 0 -10
7 -10 15 0 8 5 15 10 15 6 0 10 -7 10 -15z m451 -37 c15 -28 5 -21 -21 15 -15
20 -17 27 -6 18 9 -8 22 -23 27 -33z m-401 -104 c0 -8 -5 -12 -10 -9 -6 4 -8
11 -5 16 9 14 15 11 15 -7z"/>
<path d="M11158 10993 c-44 -43 -99 -100 -121 -128 -34 -40 -22 -32 56 39 92
84 167 166 152 166 -4 0 -43 -35 -87 -77z"/>
<path d="M11845 11031 c-16 -8 -38 -22 -49 -33 -15 -14 -22 -15 -28 -6 -6 10
-8 8 -8 -4 0 -16 -93 -81 -103 -72 -2 2 -10 -2 -17 -11 -7 -8 -19 -15 -26 -15
-8 0 -31 -11 -52 -24 -20 -12 -41 -24 -47 -25 -5 0 -45 -24 -87 -51 -42 -28
-85 -53 -95 -56 -16 -5 -16 -4 1 6 10 7 26 20 36 29 34 32 60 51 60 43 0 -4 6
0 13 9 7 8 27 22 45 30 17 7 32 17 32 21 0 5 6 8 13 8 17 0 121 51 125 62 2 4
8 6 13 2 5 -3 9 -1 9 3 0 5 9 9 21 10 36 3 69 43 35 43 -25 0 -460 -225 -538
-278 -88 -61 -164 -138 -264 -272 -136 -182 -207 -296 -295 -473 -154 -310
-205 -398 -289 -501 -44 -54 -90 -106 -102 -114 -13 -9 -69 -61 -125 -116 -57
-55 -106 -102 -111 -105 -39 -27 -162 -222 -162 -258 0 -3 30 27 68 67 126
138 175 190 178 187 1 -1 -11 -43 -28 -92 -36 -109 -88 -190 -211 -334 -184
-216 -379 -544 -403 -678 l-6 -38 48 55 c111 127 246 257 351 338 113 88 198
140 209 129 16 -15 -59 -112 -165 -212 -247 -234 -399 -394 -445 -468 -47 -75
-94 -183 -95 -215 -1 -41 -10 -80 -28 -127 -11 -27 -19 -54 -17 -60 1 -5 5
-27 9 -49 l6 -38 25 23 c13 12 27 20 30 16 10 -9 -25 -77 -39 -77 -8 0 -7 -3
2 -9 12 -8 12 -13 -3 -36 -10 -15 -15 -29 -12 -32 14 -14 138 129 227 262 65
97 168 228 190 243 16 10 16 7 4 -41 -39 -157 -82 -283 -107 -314 -7 -9 -7
-13 1 -13 22 0 196 172 252 249 17 24 51 76 75 116 44 73 93 130 64 75 -7 -14
-24 -42 -37 -62 -39 -63 -25 -66 30 -6 66 71 105 136 172 287 75 166 150 296
282 485 103 147 139 211 322 569 50 99 58 237 12 237 -10 0 -45 -24 -78 -52
-129 -114 -232 -200 -283 -239 -57 -43 -129 -83 -136 -76 -2 2 7 19 21 37 14
19 25 38 25 43 0 18 77 101 129 140 29 22 97 60 150 85 113 53 181 102 213
155 38 64 136 183 183 225 25 22 72 57 106 78 206 132 315 232 416 384 133
200 359 592 367 637 1 7 5 16 9 19 16 17 4 25 -29 20 -38 -7 -38 -6 -2 47 26
36 1 37 -33 1 -58 -64 -252 -204 -264 -192 -3 2 31 32 74 66 145 115 323 314
306 342 -4 7 -10 8 -14 4 -13 -19 -99 -73 -124 -79 -36 -9 -34 7 4 39 38 32
35 47 -6 27z"/>
<path d="M2220 10297 c0 -18 185 -326 218 -362 20 -23 55 -63 77 -90 60 -73
167 -185 177 -185 5 0 -5 19 -21 43 -98 136 -141 199 -141 206 0 4 -7 16 -15
26 -8 11 -47 68 -86 127 -66 99 -131 176 -186 222 -13 11 -23 16 -23 13z"/>
<path d="M9706 8881 c-31 -61 -55 -111 -52 -111 7 0 116 213 112 218 -2 2 -29
-47 -60 -107z"/>
<path d="M9773 8734 c-40 -55 -57 -86 -50 -91 7 -3 9 -3 6 1 -4 4 3 18 15 30
34 38 66 80 66 90 0 5 7 18 17 28 9 10 14 20 12 22 -2 2 -32 -34 -66 -80z"/>
<path d="M9596 8643 c-6 -14 -5 -15 5 -6 7 7 10 15 7 18 -3 3 -9 -2 -12 -12z"/>
<path d="M3502 7609 c6 -16 12 -28 14 -26 5 5 -13 57 -20 57 -3 0 0 -14 6 -31z"/>
<path d="M6375 7382 c-67 -37 -115 -70 -355 -247 -113 -83 -235 -173 -272
-199 -38 -26 -68 -54 -68 -62 0 -38 19 -39 755 -36 680 4 711 5 730 23 41 40
19 61 -285 267 -291 197 -400 266 -435 276 -12 3 -40 -5 -70 -22z"/>
<path d="M8617 6415 c-15 -14 -25 -25 -21 -25 9 0 74 40 74 46 0 12 -28 0 -53
-21z"/>
<path d="M8526 6347 c-31 -20 -43 -33 -33 -35 18 -4 73 34 81 55 7 17 9 18
-48 -20z"/>
<path d="M5616 6179 c-9 -13 -16 -31 -16 -40 0 -23 48 -70 140 -138 41 -30
127 -93 190 -141 200 -150 401 -291 451 -317 l49 -26 61 37 c98 58 567 414
642 486 55 54 67 71 67 98 0 22 -6 35 -22 44 -17 9 -210 13 -784 16 l-761 5
-17 -24z"/>
<path d="M8535 6090 c3 -5 11 -10 16 -10 6 0 7 5 4 10 -3 6 -11 10 -16 10 -6
0 -7 -4 -4 -10z"/>
<path d="M4159 5992 c-120 -126 -143 -152 -138 -157 6 -5 143 131 180 178 38
50 14 38 -42 -21z"/>
<path d="M7860 5912 c0 -12 19 -26 26 -19 2 2 -2 10 -11 17 -9 8 -15 8 -15 2z"/>
<path d="M4754 5859 c-32 -28 -126 -115 -209 -194 -82 -78 -179 -166 -214
-195 -96 -79 -512 -498 -548 -550 -17 -25 -64 -108 -105 -185 -96 -178 -166
-294 -287 -473 -53 -78 -114 -171 -137 -207 -23 -36 -45 -61 -49 -57 -5 4 -5
1 -1 -6 4 -7 -11 -43 -37 -86 -51 -83 -69 -127 -45 -111 7 6 6 2 -4 -7 -19
-17 -50 -93 -42 -101 8 -8 -39 -97 -52 -97 -6 0 -19 -12 -28 -27 l-17 -28 22
25 22 25 -8 -25 c-4 -14 -18 -38 -31 -53 -13 -16 -24 -33 -24 -39 0 -6 -3 -9
-6 -6 -3 4 2 20 11 37 8 17 13 31 11 31 -6 0 -127 -182 -124 -185 2 -2 66 1
143 6 203 12 506 12 610 0 50 -6 142 -20 205 -31 63 -11 131 -20 150 -20 42 0
414 84 464 105 89 38 229 139 275 200 31 41 47 46 27 8 -28 -54 -65 -95 -132
-148 -90 -72 -161 -108 -274 -140 -112 -31 -205 -62 -234 -77 -25 -12 -65 -58
-66 -74 0 -13 -38 -49 -44 -43 -3 2 0 23 6 45 6 23 9 47 6 55 -7 18 -230 64
-383 79 -134 14 -364 18 -567 10 -199 -7 -198 -7 -273 -128 -53 -85 -131 -176
-145 -167 -4 3 -14 -3 -21 -13 -13 -15 -12 -16 4 -3 11 9 17 10 17 2 0 -6 -11
-17 -25 -23 -14 -6 -25 -15 -25 -19 0 -5 -14 -23 -31 -40 -96 -98 -285 -399
-250 -399 30 0 214 215 326 380 43 63 80 117 82 119 2 2 6 1 10 -3 9 -9 -75
-179 -140 -280 -70 -111 -209 -307 -272 -386 -29 -36 -114 -157 -188 -270
-130 -197 -163 -239 -342 -437 -44 -48 -96 -107 -115 -131 -20 -24 -43 -44
-53 -46 -9 -1 -20 -6 -24 -11 -4 -4 -2 -5 5 -1 6 4 12 2 12 -3 0 -6 -7 -11
-16 -11 -8 0 -13 -4 -10 -8 3 -5 -5 -19 -17 -33 -25 -27 -94 -120 -119 -160
-18 -28 -79 -218 -102 -318 -17 -71 -31 -97 -21 -36 10 59 56 244 71 289 11
29 11 42 3 53 -7 7 -9 16 -6 19 3 4 -1 13 -10 22 -14 15 -18 14 -38 -10 -13
-15 -40 -34 -61 -43 -21 -9 -47 -25 -58 -37 -30 -32 -237 -182 -277 -201 -20
-9 -55 -34 -79 -54 -34 -31 -43 -46 -46 -78 -6 -66 -25 -177 -39 -230 -8 -27
-16 -67 -19 -89 -4 -21 -10 -43 -14 -50 -7 -11 -10 -39 -31 -260 -6 -66 -16
-136 -21 -155 -15 -54 -13 -71 10 -71 11 0 20 3 20 7 0 31 34 262 41 278 9 20
4 -142 -7 -238 l-6 -47 934 2 934 3 99 71 c148 105 224 148 258 146 18 -2 26
1 22 8 -4 7 -1 10 6 8 23 -5 99 24 92 35 -4 6 0 8 10 4 24 -9 126 25 291 95
80 35 165 64 196 68 79 11 290 -22 462 -71 164 -47 214 -48 310 -6 44 20 59
32 65 54 4 15 7 148 5 294 -2 240 -4 272 -23 325 -11 32 -28 86 -36 119 -9 33
-18 66 -20 74 -2 8 -26 -7 -68 -44 -69 -60 -85 -55 -36 11 38 52 109 124 122
124 13 0 37 59 50 123 5 29 12 111 14 183 4 144 6 156 20 166 6 5 5 8 -4 8
-11 0 -11 3 -1 15 6 8 9 19 5 25 -4 6 -2 17 5 25 6 7 10 19 9 27 -5 26 22 126
36 132 8 3 12 0 10 -7 -13 -37 -17 -103 -21 -287 -2 -113 -9 -236 -15 -275
-14 -88 -40 -185 -51 -185 -4 0 -8 -11 -8 -24 0 -14 -4 -28 -10 -31 -15 -9
-12 -46 6 -96 34 -95 43 -156 44 -329 1 -96 4 -197 6 -225 4 -53 -12 -387 -23
-470 -11 -87 -18 -21 -13 124 3 78 3 140 0 138 -18 -10 -121 -57 -150 -69 -54
-22 -243 -14 -367 17 -34 9 -65 15 -70 14 -4 -1 -10 -1 -13 1 -3 1 -16 3 -30
6 -18 3 -21 2 -10 -5 8 -5 18 -7 22 -5 4 3 8 1 8 -4 0 -5 28 -21 63 -37 88
-41 128 -66 121 -76 -3 -5 -19 -2 -37 8 -37 19 -170 63 -175 58 -4 -4 125 -65
138 -65 6 0 10 -4 10 -10 0 -5 -5 -10 -12 -10 -6 0 0 -9 13 -20 13 -11 29 -24
36 -30 7 -5 17 -10 23 -10 5 0 10 -4 10 -8 0 -5 45 -32 100 -60 l101 -52 2074
0 2075 0 1 27 c1 16 3 66 5 111 1 46 5 86 8 90 5 4 11 -170 8 -208 0 -3 27 -3
61 0 71 6 156 54 201 113 32 42 35 72 5 64 -12 -3 -18 -3 -15 0 6 7 -13 19
-80 52 -52 25 -150 114 -170 153 -25 48 -28 178 -8 343 10 83 17 177 16 211
-3 74 7 103 59 165 l40 48 -17 33 c-9 18 -20 35 -23 38 -11 9 -50 94 -60 130
-5 19 -12 78 -15 130 -10 170 -17 264 -21 300 -4 36 -36 273 -56 415 -13 95
-59 283 -83 340 -9 22 -29 58 -44 80 -55 80 -70 89 -384 239 -92 44 -165 96
-152 108 3 3 36 -9 72 -26 37 -18 131 -61 209 -95 245 -108 312 -165 345 -291
22 -83 95 -426 113 -528 3 -18 21 -90 40 -160 29 -109 35 -148 40 -277 8 -228
15 -256 90 -366 55 -82 82 -136 71 -146 -3 -4 -16 3 -29 15 -29 27 -63 28 -77
2 -6 -11 -16 -20 -24 -20 -26 0 -56 -75 -60 -152 -2 -40 -12 -145 -21 -233
-23 -222 -12 -288 57 -352 54 -49 193 -52 308 -6 101 41 201 62 320 69 114 6
167 -6 247 -55 30 -19 124 -54 234 -87 188 -57 294 -95 339 -122 33 -20 113
-74 175 -117 l50 -35 948 0 948 0 -7 90 c-5 74 -4 90 7 88 19 -4 26 83 22 276
-1 82 -1 147 2 145 12 -13 17 -73 30 -422 4 -82 9 -155 12 -163 4 -12 63 -14
359 -14 l354 0 0 143 0 143 -29 22 c-16 12 -47 31 -68 43 -21 12 -58 33 -82
47 -27 16 -41 20 -37 12 20 -36 82 -126 90 -132 5 -3 11 -14 12 -23 4 -27 -18
-2 -89 103 -47 70 -101 130 -184 208 -89 83 -244 249 -329 353 -8 10 8 -212
21 -292 14 -80 19 -93 66 -153 28 -36 48 -68 44 -72 -3 -3 -27 16 -52 43 -25
28 -52 49 -60 47 -8 -2 -13 6 -13 22 0 45 -24 166 -33 166 -4 0 -5 20 -2 44 4
25 3 51 -1 58 -5 7 -7 23 -5 36 1 12 -2 22 -7 22 -4 0 -7 12 -4 28 2 20 -5 37
-30 66 -66 79 -195 202 -261 250 -37 28 -67 53 -67 58 0 4 -6 8 -13 8 -8 0
-22 9 -32 20 -10 11 -24 20 -30 20 -7 0 -18 7 -25 15 -14 17 -126 95 -137 95
-4 0 -18 10 -32 23 -22 20 -23 20 -10 1 19 -28 139 -138 139 -128 0 5 9 -4 20
-21 21 -31 26 -50 12 -41 -5 3 -9 -1 -9 -9 0 -8 5 -15 10 -15 6 0 7 -3 4 -6
-7 -7 6 -35 31 -66 58 -71 147 -168 154 -168 4 0 8 -5 8 -11 0 -14 -71 29
-127 77 -25 22 -51 43 -59 47 -8 4 -14 15 -14 24 0 9 -3 13 -6 10 -4 -4 -23
21 -43 54 -42 71 -118 167 -144 183 -21 12 -54 43 -231 215 -64 63 -123 123
-131 135 -10 14 -15 16 -15 6 0 -16 -53 38 -63 64 -4 9 -11 15 -16 14 -5 -2
-9 -1 -8 2 2 14 -26 50 -39 50 -8 0 -13 4 -10 9 3 5 -5 20 -19 35 -13 14 -69
84 -124 154 -55 70 -141 179 -191 242 -103 130 -159 219 -213 335 -45 97 -21
70 34 -37 22 -43 41 -78 44 -78 4 0 -147 318 -201 423 -19 37 -33 67 -31 67 2
0 36 -47 76 -105 74 -108 104 -142 51 -58 -32 50 -38 69 -17 57 6 -4 -2 8 -19
27 -17 19 -41 49 -53 67 -12 18 -27 29 -33 26 -6 -4 -8 -2 -4 4 3 6 1 14 -6
19 -7 4 -20 17 -28 27 -13 18 -13 19 0 11 8 -4 5 1 -6 13 -12 11 -47 57 -79
102 -31 44 -67 87 -78 95 -44 28 -158 40 -377 40 -141 0 -260 -6 -345 -17 -71
-10 -161 -20 -200 -23 -38 -4 -81 -8 -95 -9 -29 -3 -102 -26 -112 -35 -9 -8
14 -100 36 -145 31 -63 155 -134 276 -155 36 -6 85 -15 110 -20 l45 -9 -42 -1
c-62 -2 -192 18 -243 36 -100 37 -150 82 -191 175 -51 116 -95 151 -249 197
-213 64 -254 80 -341 140 -46 31 -61 46 -109 113 -47 64 -36 62 33 -7 95 -94
199 -141 462 -206 235 -58 243 -58 535 -24 204 24 465 30 631 15 79 -7 154
-16 167 -21 12 -5 22 -6 22 -3 0 19 -43 83 -68 101 -22 16 -29 28 -25 43 4 14
0 20 -10 20 -8 0 -25 17 -36 38 l-22 37 26 -28 c32 -36 32 -28 0 23 -14 22
-49 90 -79 152 -30 62 -70 136 -90 163 -48 69 -123 195 -151 253 -8 17 -19 32
-24 32 -5 0 -16 16 -26 36 -9 20 -28 45 -41 57 -13 11 -24 28 -24 37 0 9 -8
25 -18 36 -11 11 -21 24 -23 30 -18 45 -123 203 -131 198 -7 -5 -9 2 -6 19 4
19 0 27 -15 31 -11 3 -17 11 -14 18 2 8 -6 34 -19 58 -13 25 -24 41 -24 36 0
-5 -6 -3 -14 4 -8 6 -13 17 -10 23 6 16 -50 99 -61 90 -4 -5 -6 -1 -3 7 4 12
-39 81 -63 100 -3 3 -25 27 -48 53 -22 27 -41 46 -41 42 0 -3 -6 0 -14 7 -8 7
-13 15 -13 18 3 9 -227 211 -250 221 -13 5 -23 12 -23 17 0 4 -15 16 -32 27
-18 10 -102 80 -187 154 -85 75 -186 163 -225 196 -39 32 -93 82 -120 109 -27
27 -46 43 -42 35 5 -8 -11 6 -34 31 -23 25 -38 38 -34 30 7 -13 6 -13 -9 -1
-25 20 -40 11 -232 -140 -94 -74 -219 -172 -280 -219 -60 -46 -228 -177 -373
-290 -303 -237 -403 -309 -487 -353 -53 -28 -69 -32 -140 -31 -130 1 -207 42
-500 267 -77 59 -275 210 -440 334 -165 124 -327 247 -360 273 -83 66 -285
200 -300 200 -6 0 -38 -23 -71 -51z m2806 -279 c0 -5 -5 -10 -11 -10 -5 0 -7
5 -4 10 3 6 8 10 11 10 2 0 4 -4 4 -10z m-2951 -673 c70 -142 106 -184 194
-226 87 -41 159 -59 315 -76 216 -24 224 -23 346 39 61 31 127 58 154 61 26 4
113 20 195 37 156 31 215 33 110 3 -35 -10 -63 -21 -63 -25 0 -3 58 -34 128
-69 105 -51 150 -66 247 -86 161 -33 334 -34 448 -4 84 23 301 127 300 144 -1
6 -20 16 -43 24 -22 7 -40 15 -38 16 2 2 64 -1 138 -5 129 -8 140 -10 250 -55
63 -25 140 -53 170 -61 110 -29 383 -8 536 40 88 28 137 66 200 151 27 36 53
65 58 65 8 0 7 -3 0 -8 -6 -4 -14 -20 -18 -35 -6 -27 -78 -123 -120 -161 -33
-29 -88 -50 -222 -85 -42 -11 -201 -29 -293 -34 l-54 -2 74 -49 c100 -67 259
-166 266 -166 12 0 61 -48 55 -54 -3 -4 4 -9 16 -13 12 -3 22 -9 22 -13 0 -4
32 -28 70 -54 79 -52 150 -113 150 -128 0 -7 -4 -7 -12 -1 -23 18 -272 145
-292 149 -11 2 -22 7 -25 12 -9 13 -171 92 -188 92 -37 0 -148 66 -210 125
-97 91 -118 106 -160 112 -21 3 -63 13 -93 23 -59 19 -144 19 -183 -1 -12 -6
-75 -43 -141 -82 -112 -67 -117 -72 -90 -78 40 -10 316 -29 419 -29 46 0 86
-3 88 -7 11 -17 -511 14 -727 42 -61 8 -159 17 -217 20 -159 8 -319 41 -518
110 -80 27 -116 33 -65 11 55 -24 45 -33 -14 -13 -92 32 -173 28 -262 -11
-127 -57 -164 -78 -447 -254 -78 -48 -144 -88 -147 -88 -10 0 -144 -87 -203
-132 -60 -46 -73 -45 -41 5 26 39 188 166 258 202 19 10 37 21 40 24 3 4 55
38 117 75 124 75 165 110 98 82 -22 -9 -62 -30 -88 -46 -27 -17 -51 -30 -55
-30 -13 0 103 74 173 112 41 22 64 39 55 41 -8 3 -67 10 -131 16 -179 18 -326
62 -410 122 -38 27 -164 219 -174 267 -2 9 -8 32 -14 50 -20 67 9 28 68 -91z
m3664 -2 c-3 -9 -8 -14 -10 -11 -3 3 -2 9 2 15 9 16 15 13 8 -4z m-4143 -170
c19 -19 32 -35 29 -35 -3 0 -20 16 -39 35 -19 19 -32 35 -29 35 3 0 20 -16 39
-35z m1827 -236 c28 -11 57 -26 63 -34 19 -23 1 -17 -80 26 -77 41 -74 42 17
8z m3323 -41 c7 -18 20 -41 28 -51 8 -9 12 -20 9 -23 -3 -4 -16 10 -28 30 -11
20 -24 36 -27 36 -4 0 -8 11 -8 25 -2 32 10 24 26 -17z m-1453 -24 c25 -14 42
-28 39 -31 -3 -3 -27 8 -53 26 -58 37 -47 41 14 5z m-330 -68 c17 -18 17 -18
-6 -6 -13 6 -53 16 -90 20 l-66 9 72 -3 c56 -1 77 -6 90 -20z m-2162 -39 c-33
-18 -76 -43 -95 -55 l-35 -24 35 32 c33 29 124 79 145 79 6 0 -17 -14 -50 -32z
m779 -368 c66 -57 156 -112 210 -129 38 -12 168 -10 211 4 11 3 7 0 -10 -8
-79 -38 -193 -29 -297 24 -32 17 -60 30 -63 30 -2 0 -5 -19 -7 -42 -4 -49 -14
-35 -23 33 -6 47 -32 83 -105 142 l-35 28 32 -17 c17 -10 56 -39 87 -65z m476
-109 c-8 -5 -19 -10 -25 -10 -5 0 -3 5 5 10 8 5 20 10 25 10 6 0 3 -5 -5 -10z
m99 -97 c-25 -50 -52 -68 -151 -103 l-48 -17 106 -64 c58 -35 127 -78 153 -95
135 -90 149 -95 303 -105 79 -5 167 -11 196 -13 28 -2 55 0 58 5 3 5 11 9 17
9 7 0 4 -7 -6 -14 -10 -8 -19 -23 -20 -34 -1 -13 -7 -18 -19 -14 -10 2 -18 0
-18 -5 0 -5 -42 -8 -97 -6 -71 2 -94 0 -86 -8 13 -13 5 -49 -12 -49 -27 0 -28
-32 -5 -185 5 -33 12 -71 16 -85 13 -51 16 -169 4 -204 -16 -48 -34 -47 -25 2
12 61 7 133 -15 225 -11 48 -20 108 -20 133 0 25 -5 54 -11 65 -8 15 -7 24 2
35 9 11 8 18 -6 34 -23 26 -39 26 -32 -1 5 -18 3 -18 -11 -7 -9 7 -22 20 -29
28 -9 10 -12 11 -13 3 0 -22 -28 -14 -113 31 -104 57 -171 68 -387 68 -122 0
-195 -5 -280 -20 -125 -22 -188 -42 -157 -49 13 -3 3 -12 -33 -30 -37 -19 -59
-23 -83 -19 -18 4 -81 9 -142 12 -118 6 -148 17 -94 33 28 8 17 10 -62 8 l-96
-2 21 27 c21 27 23 27 146 28 175 1 218 6 280 29 59 22 201 113 290 186 34 27
70 47 93 51 20 4 39 10 42 14 2 4 -18 17 -45 30 -27 13 -70 42 -97 66 l-48 44
50 -25 c86 -43 208 -68 305 -62 100 5 139 22 169 73 31 52 38 34 10 -23z
m-925 -673 c-3 -52 -10 -115 -14 -139 -11 -60 -5 -136 15 -191 18 -50 8 -45
-26 15 -25 45 -31 154 -10 179 8 10 12 56 10 144 -1 71 2 135 7 143 15 25 24
-51 18 -151z m-2946 130 c-7 -10 -14 -17 -17 -15 -4 4 18 35 25 35 2 0 -1 -9
-8 -20z m-77 -107 c-8 -15 -10 -15 -11 -2 0 17 10 32 18 25 2 -3 -1 -13 -7
-23z m1239 13 c0 -3 -4 -8 -10 -11 -5 -3 -10 -1 -10 4 0 6 5 11 10 11 6 0 10
-2 10 -4z m1261 -64 c-17 -32 -93 -88 -156 -115 -33 -14 -109 -44 -169 -67
-116 -42 -211 -98 -262 -152 -62 -66 -134 -195 -134 -239 0 -10 -4 -20 -9 -24
-12 -7 -4 88 11 135 18 55 55 109 125 176 73 71 159 119 283 159 128 42 251
94 283 121 34 29 41 30 28 6z m2369 -45 c0 -4 -13 1 -30 13 -16 12 -30 29 -30
38 0 12 8 9 30 -13 17 -16 30 -33 30 -38z m-3740 0 c0 -2 -13 -13 -30 -25 -16
-13 -30 -18 -30 -13 0 6 12 17 28 25 29 17 32 18 32 13z m-95 -57 c-3 -5 -11
-10 -16 -10 -6 0 -7 5 -4 10 3 6 11 10 16 10 6 0 7 -4 4 -10z m2678 -707 c-7
-2 -21 -2 -30 0 -10 3 -4 5 12 5 17 0 24 -2 18 -5z m65 -10 c-10 -2 -26 -2
-35 0 -10 3 -2 5 17 5 19 0 27 -2 18 -5z m-2005 -173 c-3 -11 -7 -20 -9 -20
-2 0 -4 9 -4 20 0 11 4 20 9 20 5 0 7 -9 4 -20z m6886 -782 c41 -67 44 -74 17
-43 -33 36 -50 65 -39 65 5 0 14 -10 22 -22z m103 -151 c32 -36 93 -155 103
-202 3 -16 -18 17 -47 75 -29 58 -65 121 -79 140 -14 19 -29 42 -33 50 -4 8 1
5 10 -8 9 -12 30 -37 46 -55z m-10195 -339 c-3 -7 -5 -2 -5 12 0 14 2 19 5 13
2 -7 2 -19 0 -25z m10730 -170 c-3 -8 -6 -5 -6 6 -1 11 2 17 5 13 3 -3 4 -12
1 -19z m73 -243 c0 -5 -5 -3 -10 5 -5 8 -10 20 -10 25 0 6 5 3 10 -5 5 -8 10
-19 10 -25z m-3743 -95 c-1 -11 -5 -20 -9 -20 -10 0 -10 4 -2 24 8 22 13 20
11 -4z m-5330 -26 c-3 -3 -12 -4 -19 -1 -8 3 -5 6 6 6 11 1 17 -2 13 -5z
m1271 -71 c-10 -2 -28 -2 -40 0 -13 2 -5 4 17 4 22 1 32 -1 23 -4z m89 -79
c-3 -3 -12 -4 -19 -1 -8 3 -5 6 6 6 11 1 17 -2 13 -5z"/>
<path d="M5826 4619 c10 -17 124 -65 205 -87 133 -36 229 -53 368 -62 75 -5
185 -15 245 -22 106 -12 109 -12 149 11 22 13 63 42 91 65 28 22 65 51 81 64
30 22 30 22 5 19 -14 -2 -32 -7 -40 -10 -78 -34 -243 -88 -291 -97 -117 -21
-507 21 -639 70 -45 17 -89 34 -98 39 -29 15 -84 22 -76 10z"/>
<path d="M7320 4615 c0 -14 97 -67 127 -70 l38 -5 -24 20 c-13 11 -34 20 -46
20 -13 0 -30 6 -37 13 -12 13 -58 29 -58 22z"/>
<path d="M7441 4520 c3 -18 144 -129 180 -142 104 -36 174 -57 178 -52 5 5
-23 27 -59 46 -44 22 -105 63 -115 76 -10 13 -36 29 -85 54 -14 7 -27 16 -30
19 -6 8 -70 7 -69 -1z"/>
<path d="M7810 4321 c0 -10 58 -36 65 -29 3 2 -11 12 -30 21 -19 9 -35 13 -35
8z"/>
<path d="M6325 3554 c-42 -18 -182 -108 -225 -144 l-25 -21 35 5 c70 11 457
18 543 9 48 -5 87 -8 87 -6 0 10 -136 101 -194 130 -85 43 -161 52 -221 27z"/>
<path d="M3905 5810 c3 -5 10 -10 16 -10 5 0 9 5 9 10 0 6 -7 10 -16 10 -8 0
-12 -4 -9 -10z"/>
<path d="M4027 5228 c-80 -84 -155 -166 -167 -183 -12 -16 51 44 139 135 145
148 191 200 177 200 -2 0 -70 -69 -149 -152z"/>
<path d="M3333 5286 c-140 -75 -269 -190 -366 -326 -76 -107 -131 -174 -228
-276 -66 -69 -87 -101 -149 -225 -40 -79 -125 -232 -190 -339 -64 -107 -147
-253 -183 -325 -51 -99 -97 -170 -198 -300 -180 -233 -198 -260 -209 -330 -14
-86 -51 -150 -147 -256 -176 -195 -342 -482 -489 -846 -83 -208 -137 -323
-169 -362 -12 -14 -48 -64 -80 -111 -72 -103 -45 -73 -288 -317 -111 -112
-196 -203 -189 -203 7 0 94 81 193 180 98 99 179 177 179 174 0 -4 -9 -22 -21
-40 -11 -19 -17 -39 -13 -45 4 -8 3 -9 -4 -5 -7 4 -18 -7 -27 -26 -15 -29 -10
-26 37 22 39 39 68 83 102 155 43 89 132 235 144 235 2 0 2 -9 -1 -20 -8 -32
125 84 353 305 260 254 288 280 295 273 7 -6 -44 -117 -63 -136 -16 -17 -16
-25 1 -16 6 5 -4 -9 -23 -30 -19 -20 -34 -42 -33 -47 2 -5 -3 -9 -11 -9 -8 0
-28 -14 -45 -31 -17 -17 -35 -27 -41 -24 -6 4 -9 1 -8 -6 2 -7 -7 -14 -19 -15
-19 -1 -109 -66 -138 -99 -5 -7 -15 -14 -21 -16 -7 -2 -47 -33 -90 -69 -44
-36 -82 -64 -86 -62 -5 1 -7 -1 -6 -6 1 -4 -23 -32 -54 -62 -31 -30 -65 -73
-76 -95 -36 -72 -94 -206 -90 -210 8 -7 264 118 356 176 168 104 380 269 477
370 156 162 369 496 575 904 70 138 153 291 186 342 32 51 81 130 107 176 27
46 94 137 150 203 56 65 117 138 135 162 19 23 39 39 44 36 7 -4 8 -2 4 4 -4
7 11 35 32 64 109 149 247 356 304 458 120 214 182 325 216 390 l34 65 -200
-201 c-109 -111 -226 -221 -258 -244 -32 -24 -102 -85 -156 -136 -132 -128
-220 -180 -243 -145 -8 14 251 306 406 456 74 72 179 169 234 216 55 48 129
123 165 170 35 46 58 79 50 72 -9 -6 2 23 22 65 20 42 35 78 33 81 -3 2 -19
-9 -37 -25 -17 -16 -27 -22 -23 -14 22 37 -49 -32 -104 -102 -34 -43 -63 -78
-66 -78 -9 0 157 215 172 224 18 10 52 83 53 110 0 13 -10 4 -30 -27 -16 -26
-34 -47 -40 -47 -6 0 -9 4 -6 8 8 13 -61 242 -72 242 -4 0 -35 -15 -69 -34z
m-33 -133 c-128 -133 -127 -133 -97 -93 15 19 35 46 44 60 21 32 124 130 137
130 5 0 -33 -44 -84 -97z m20 -356 c0 -2 -10 -12 -22 -23 l-23 -19 19 23 c18
21 26 27 26 19z"/>
<path d="M9620 3989 c0 -9 31 -69 35 -69 3 0 2 8 -2 18 -7 19 -33 59 -33 51z"/>
<path d="M3159 3938 c-30 -42 -69 -110 -55 -96 12 10 94 138 90 138 -2 0 -18
-19 -35 -42z"/>
<path d="M3055 3759 c-31 -60 -33 -69 -15 -59 11 6 20 19 20 29 0 10 3 21 7
25 8 8 32 76 27 76 -2 0 -20 -32 -39 -71z"/>
<path d="M2889 3683 c-13 -16 -12 -17 4 -4 16 13 21 21 13 21 -2 0 -10 -8 -17
-17z"/>
<path d="M2986 3633 c-14 -27 -35 -64 -47 -83 -27 -42 -14 -30 27 25 26 35 58
105 48 105 -2 0 -15 -21 -28 -47z"/>
<path d="M2803 3563 c-15 -21 -62 -81 -103 -133 -84 -106 -125 -168 -117 -176
3 -3 10 4 17 15 6 12 15 19 21 16 5 -4 9 -1 9 5 0 6 4 8 10 5 6 -4 7 1 3 11
-4 11 -3 15 5 10 6 -4 17 5 26 21 7 16 25 37 37 48 24 20 24 20 8 0 -9 -11
-20 -27 -24 -35 -8 -13 -7 -13 9 0 32 26 136 191 136 216 0 3 -8 3 -17 0 -15
-6 -15 -4 2 14 10 11 15 20 12 20 -3 0 -19 -17 -34 -37z"/>
<path d="M2858 3463 c-73 -119 -94 -177 -53 -143 23 19 44 63 41 86 -3 21 14
55 25 48 8 -4 34 54 27 61 -3 3 -21 -21 -40 -52z m-27 -86 c-10 -9 -11 -8 -5
6 3 10 9 15 12 12 3 -3 0 -11 -7 -18z"/>
<path d="M10355 2800 c27 -27 51 -50 54 -50 3 0 -17 23 -44 50 -27 28 -51 50
-54 50 -3 0 17 -22 44 -50z"/>
<path d="M10507 2524 c12 -17 30 -37 40 -45 13 -10 12 -6 -4 17 -12 17 -30 37
-40 45 -13 10 -12 6 4 -17z"/>
<path d="M1723 1653 c-44 -49 -92 -106 -108 -128 -18 -25 -7 -16 31 24 32 36
68 76 78 90 11 14 35 43 55 64 19 20 32 37 29 37 -3 0 -41 -39 -85 -87z"/>
<path d="M1528 1468 c-30 -40 -78 -124 -78 -135 0 -12 68 85 91 130 24 46 19
47 -13 5z"/>
<path d="M1314 1374 c-32 -31 -62 -53 -69 -50 -9 3 -12 0 -9 -9 8 -21 -31 -38
-46 -20 -10 12 -8 14 8 10 17 -3 18 -1 8 20 -13 29 -16 28 -161 -80 -104 -77
-212 -181 -200 -193 3 -3 23 12 45 33 22 21 43 36 46 32 4 -3 -1 -14 -10 -23
-10 -9 -15 -23 -12 -31 3 -8 2 -12 -3 -9 -11 7 -22 -6 -51 -59 l-22 -40 28 25
c15 14 24 18 20 10 -4 -8 2 -3 14 13 12 15 26 25 31 22 22 -14 419 320 419
352 0 10 6 13 16 9 8 -3 12 -2 9 3 -3 6 2 14 11 19 15 8 15 10 0 15 -10 4 -34
-12 -72 -49z m-325 -273 c-30 -27 -56 -48 -58 -45 -3 3 19 27 49 54 29 28 55
48 57 46 3 -2 -19 -27 -48 -55z"/>
<path d="M970 1234 c-57 -46 -62 -51 -25 -30 41 24 92 66 80 66 -5 0 -30 -16
-55 -36z"/>
<path d="M1397 1263 c-4 -3 -7 -11 -7 -17 0 -6 5 -5 12 2 6 6 9 14 7 17 -3 3
-9 2 -12 -2z"/>
<path d="M12005 1130 c3 -5 8 -10 11 -10 2 0 4 5 4 10 0 6 -5 10 -11 10 -5 0
-7 -4 -4 -10z"/>
<path d="M615 854 c-102 -112 -135 -147 -135 -139 0 4 -20 -13 -44 -38 -25
-25 -70 -65 -101 -89 -107 -82 -212 -163 -273 -212 l-62 -49 0 -164 0 -163
299 0 299 0 6 27 c3 16 8 48 12 73 7 47 10 69 19 110 5 25 12 90 20 188 3 30
8 59 11 65 3 7 -16 -12 -44 -40 -76 -80 -77 -68 -6 42 27 42 47 96 70 185 50
198 52 215 28 224 -8 3 -13 2 -10 -2 3 -5 -1 -9 -9 -9 -9 0 -15 5 -14 11 6 49
-6 46 -66 -20z"/>
<path d="M3053 204 c-74 -19 -127 -48 -181 -99 -26 -23 -59 -54 -74 -68 -16
-13 -28 -27 -28 -31 0 -3 249 -6 553 -6 l552 1 -50 26 c-27 14 -59 33 -70 43
-29 26 -176 89 -232 100 -26 5 -104 8 -173 6 -115 -3 -137 -7 -280 -50 -85
-26 -165 -51 -177 -56 -17 -7 -23 -6 -23 3 0 13 67 47 140 69 22 7 40 16 40
20 0 5 9 8 19 8 11 0 21 5 23 10 2 6 13 12 26 13 26 2 30 22 5 24 -10 0 -42
-5 -70 -13z"/>
<path d="M9130 167 c-3 -2 -32 -7 -65 -10 -86 -8 -185 -44 -265 -96 l-24 -16
39 -5 40 -5 -30 -17 c-28 -16 -4 -17 485 -17 571 0 543 -5 415 61 -53 28 -151
62 -255 88 -39 10 -332 25 -340 17z"/>
<path d="M9780 101 c0 -12 142 -103 149 -95 3 3 -2 10 -11 15 -9 5 -23 15 -30
23 -15 14 -95 66 -103 66 -3 0 -5 -4 -5 -9z"/>
</g>
</svg>
